<svg xmlns="http://www.w3.org/2000/svg" stroke-width="0" viewBox="0 0 151.84 35.39"><path d="M144.4 2.91l-4.54 9.05h8.83l-.83-1.75-5.03-.02 2.57-5.12-1-2.16zm5.25 9.05l2.19-.03L145.86 0l-1.01 2.01 4.8 9.95z" class="second"/><path d="M14.32 12.34c.54 0 .98.18 1.33.53.35.35.53.8.53 1.36v13.09c0 .53-.18.98-.53 1.34-.35.36-.79.55-1.33.55-.53 0-.98-.19-1.33-.55-.35-.36-.52-.81-.52-1.34V25.8l.68.28c0 .27-.15.59-.43.98-.29.38-.69.75-1.18 1.12-.5.38-1.08.69-1.75.95-.67.26-1.4.38-2.18.38-1.42 0-2.71-.36-3.87-1.09-1.15-.74-2.06-1.75-2.73-3.04C.34 24.1 0 22.62 0 20.94c0-1.69.34-3.18 1.01-4.47.67-1.28 1.57-2.3 2.7-3.03 1.14-.73 2.39-1.1 3.78-1.1.88 0 1.7.14 2.44.41.74.26 1.39.6 1.93 1.02.55.41.97.83 1.27 1.25.3.42.45.78.45 1.07l-1.11.4v-2.26c0-.53.17-.98.52-1.34.35-.37.8-.55 1.33-.55zM8.07 26.11c.91 0 1.71-.23 2.39-.68.68-.45 1.21-1.07 1.59-1.86.38-.78.57-1.66.57-2.63 0-.99-.19-1.87-.57-2.66-.38-.78-.91-1.4-1.59-1.85-.68-.46-1.48-.68-2.39-.68-.88 0-1.67.22-2.35.68-.68.45-1.21 1.07-1.59 1.85-.38.79-.57 1.67-.57 2.66 0 .97.19 1.85.57 2.63.38.79.91 1.41 1.59 1.86.68.45 1.47.68 2.35.68zm20.98-13.77c1.53 0 2.69.32 3.48.96.79.64 1.34 1.49 1.64 2.56.3 1.06.45 2.24.45 3.54v7.92c0 .53-.18.98-.53 1.34-.35.36-.79.55-1.33.55-.53 0-.98-.19-1.33-.55-.35-.36-.52-.81-.52-1.34V19.4c0-.68-.09-1.3-.27-1.84-.17-.55-.49-.99-.94-1.32-.45-.33-1.1-.49-1.95-.49-.82 0-1.52.16-2.09.49-.56.33-1 .77-1.3 1.32-.3.54-.45 1.16-.45 1.84v7.92c0 .53-.17.98-.52 1.34-.35.36-.8.55-1.33.55-.54 0-.98-.19-1.33-.55-.35-.36-.53-.81-.53-1.34V14.54c0-.54.18-.98.53-1.34.35-.37.79-.55 1.33-.55.53 0 .98.18 1.33.55.35.36.52.8.52 1.34v1.33l-.46-.09c.19-.35.45-.73.8-1.13.36-.4.77-.78 1.24-1.13.48-.35 1.01-.63 1.61-.85.6-.22 1.25-.33 1.95-.33zm16.3 0c.87 0 1.66.14 2.39.41.72.26 1.34.6 1.87 1.02.52.41.94.83 1.24 1.25.29.42.44.78.44 1.07l-.8.4v-2.26c0-.53.17-.98.53-1.34.35-.37.79-.55 1.33-.55.53 0 .98.18 1.33.53.35.35.52.8.52 1.36V28c0 1.79-.38 3.23-1.16 4.31-.77 1.09-1.79 1.87-3.05 2.36-1.25.48-2.6.72-4.05.72-.41 0-.95-.05-1.61-.15-.66-.11-1.29-.23-1.88-.37-.6-.15-1.06-.28-1.37-.41-.61-.26-1.04-.6-1.28-1s-.28-.83-.14-1.28c.19-.6.49-1.01.9-1.23.41-.21.84-.24 1.3-.07.2.06.54.18 1.02.37.47.18.99.35 1.56.51.57.15 1.07.23 1.5.23 1.55 0 2.69-.31 3.44-.93.74-.62 1.11-1.47 1.11-2.57V25.8l.37.28c0 .27-.14.59-.42.98-.28.38-.66.75-1.14 1.12-.49.38-1.06.69-1.72.95-.66.26-1.36.38-2.1.38-1.47 0-2.79-.36-3.96-1.09-1.18-.74-2.11-1.75-2.79-3.04-.68-1.28-1.02-2.76-1.02-4.44 0-1.69.34-3.18 1.02-4.47.68-1.28 1.6-2.3 2.76-3.03 1.15-.73 2.44-1.1 3.86-1.1zm.59 3.41c-.93 0-1.74.22-2.44.68-.7.45-1.25 1.07-1.64 1.85-.39.79-.59 1.67-.59 2.66 0 .97.2 1.85.59 2.63.39.79.94 1.41 1.64 1.86.7.45 1.51.68 2.44.68.95 0 1.78-.23 2.48-.68.7-.45 1.24-1.07 1.64-1.86.39-.78.58-1.66.58-2.63 0-.99-.19-1.87-.58-2.66-.4-.78-.94-1.4-1.64-1.85-.7-.46-1.53-.68-2.48-.68zm25.53-3.41c.53 0 .97.18 1.33.53.35.35.52.8.52 1.36v13.09c0 .53-.17.98-.52 1.34-.36.36-.8.55-1.33.55-.54 0-.98-.19-1.34-.55-.35-.36-.52-.81-.52-1.34V25.8l.68.28c0 .27-.14.59-.43.98-.29.38-.68.75-1.18 1.12-.49.38-1.08.69-1.75.95-.67.26-1.39.38-2.18.38-1.42 0-2.71-.36-3.87-1.09-1.15-.74-2.06-1.75-2.73-3.04-.67-1.28-1.01-2.76-1.01-4.44 0-1.69.34-3.18 1.01-4.47.67-1.28 1.57-2.3 2.7-3.03a6.87 6.87 0 0 1 3.78-1.1c.88 0 1.7.14 2.44.41.74.26 1.39.6 1.94 1.02.54.41.96.83 1.26 1.25.3.42.45.78.45 1.07l-1.11.4v-2.26c0-.53.17-.98.52-1.34.36-.37.8-.55 1.34-.55zm-6.25 13.77c.9 0 1.7-.23 2.38-.68.68-.45 1.21-1.07 1.59-1.86.38-.78.57-1.66.57-2.63 0-.99-.19-1.87-.57-2.66-.38-.78-.91-1.4-1.59-1.85-.68-.46-1.48-.68-2.38-.68-.89 0-1.67.22-2.36.68-.68.45-1.21 1.07-1.59 1.85-.38.79-.57 1.67-.57 2.66 0 .97.19 1.85.57 2.63.38.79.91 1.41 1.59 1.86.69.45 1.47.68 2.36.68zm13.98 3.1c-.54 0-.98-.19-1.33-.55-.35-.36-.53-.81-.53-1.34V14.54c0-.54.18-.98.53-1.34.35-.37.79-.55 1.33-.55s.98.18 1.33.55c.35.36.53.8.53 1.34v2.91l-.22-2.07c.23-.5.52-.94.88-1.32.36-.38.77-.7 1.22-.96.46-.26.94-.45 1.46-.57a6.76 6.76 0 0 1 1.54-.19c.62 0 1.14.18 1.57.53.42.35.63.76.63 1.24 0 .68-.17 1.17-.53 1.47-.35.3-.73.45-1.14.45-.39 0-.75-.08-1.07-.22-.32-.15-.68-.22-1.1-.22-.37 0-.74.09-1.13.27-.38.17-.73.44-1.05.82-.32.37-.57.83-.77 1.37-.2.55-.29 1.19-.29 1.94v7.33c0 .53-.18.98-.53 1.34-.35.36-.79.55-1.33.55zm20.82-21.66c1.07 0 2.08.31 3.02.93.94.62 1.69 1.45 2.27 2.5.58 1.05.87 2.23.87 3.53 0 1.28-.29 2.44-.87 3.5-.58 1.05-1.33 1.89-2.27 2.52-.94.63-1.95.94-3.02.94h-5.69l.31-.56v6.41c0 .53-.17.98-.5 1.34-.33.36-.76.55-1.3.55-.51 0-.94-.19-1.27-.55-.33-.36-.49-.81-.49-1.34V9.44c0-.54.18-.99.54-1.35.36-.36.81-.54 1.35-.54h7.05zm0 10.39c.39 0 .77-.16 1.14-.49.38-.33.69-.76.93-1.28.25-.53.37-1.08.37-1.66 0-.6-.12-1.16-.37-1.67a3.53 3.53 0 0 0-.93-1.25c-.37-.32-.75-.48-1.14-.48h-5.75l.37-.56v7.89l-.34-.5h5.72zm11.26 11.27c-.53 0-.98-.19-1.33-.55-.35-.36-.52-.81-.52-1.34V14.54c0-.54.17-.98.52-1.34.35-.37.8-.55 1.33-.55.54 0 .98.18 1.33.55.35.36.53.8.53 1.34v2.91l-.22-2.07c.23-.5.52-.94.88-1.32.36-.38.77-.7 1.22-.96.46-.26.94-.45 1.46-.57.51-.12 1.03-.19 1.55-.19.61 0 1.14.18 1.56.53.42.35.63.76.63 1.24 0 .68-.17 1.17-.52 1.47-.35.3-.74.45-1.15.45-.39 0-.75-.08-1.07-.22-.32-.15-.68-.22-1.09-.22-.38 0-.75.09-1.13.27-.38.17-.74.44-1.06.82-.31.37-.57.83-.77 1.37-.19.55-.29 1.19-.29 1.94v7.33c0 .53-.18.98-.53 1.34-.35.36-.79.55-1.33.55zm26.79-8.27c0 1.7-.37 3.19-1.13 4.48a8.104 8.104 0 0 1-3.03 3.01c-1.27.72-2.68 1.08-4.25 1.08-1.57 0-2.99-.36-4.26-1.08-1.26-.72-2.27-1.73-3.03-3.01-.75-1.29-1.13-2.78-1.13-4.48 0-1.69.38-3.18 1.13-4.47.76-1.28 1.77-2.3 3.03-3.03 1.27-.73 2.69-1.1 4.26-1.1 1.57 0 2.98.37 4.25 1.1 1.27.73 2.28 1.75 3.03 3.03.76 1.29 1.13 2.78 1.13 4.47zm-3.71 0c0-1.05-.21-1.96-.63-2.73-.43-.78-.99-1.38-1.71-1.81-.71-.44-1.5-.65-2.36-.65-.87 0-1.66.21-2.37.65a4.64 4.64 0 0 0-1.7 1.81c-.42.77-.63 1.68-.63 2.73 0 1.04.21 1.94.63 2.71.42.78.99 1.38 1.7 1.81.71.43 1.5.65 2.37.65.86 0 1.65-.22 2.36-.65.72-.43 1.28-1.03 1.71-1.81.42-.77.63-1.67.63-2.71z" class="first"/></svg>